<?xml version="1.0" encoding="UTF-8" standalone="no"?>
<!DOCTYPE svg PUBLIC "-//W3C//DTD SVG 1.1//EN"
 "http://www.w3.org/Graphics/SVG/1.1/DTD/svg11.dtd">
<!-- Generated by graphviz version 2.43.0 (0)
 -->
<!-- Title: src/farmermarket/src/farmermarket.cpp Pages: 1 -->
<svg width="475pt" height="151pt"
 viewBox="0.00 0.00 474.50 151.00" xmlns="http://www.w3.org/2000/svg" xmlns:xlink="http://www.w3.org/1999/xlink">
<g id="graph0" class="graph" transform="scale(1 1) rotate(0) translate(4 147)">
<title>src/farmermarket/src/farmermarket.cpp</title>
<polygon fill="white" stroke="transparent" points="-4,4 -4,-147 470.5,-147 470.5,4 -4,4"/>
<!-- Node1 -->
<g id="node1" class="node">
<title>Node1</title>
<g id="a_node1"><a xlink:title=" ">
<polygon fill="#bfbfbf" stroke="black" points="205,-112.5 205,-142.5 324,-142.5 324,-112.5 205,-112.5"/>
<text text-anchor="start" x="213" y="-130.5" font-family="Helvetica,sans-Serif" font-size="10.00">src/farmermarket/src</text>
<text text-anchor="middle" x="264.5" y="-119.5" font-family="Helvetica,sans-Serif" font-size="10.00">/farmermarket.cpp</text>
</a>
</g>
</g>
<!-- Node2 -->
<g id="node2" class="node">
<title>Node2</title>
<g id="a_node2"><a xlink:href="farmermarket_8h.html" target="_top" xlink:title="Provides functions.">
<polygon fill="white" stroke="black" points="0,-56.5 0,-75.5 139,-75.5 139,-56.5 0,-56.5"/>
<text text-anchor="middle" x="69.5" y="-63.5" font-family="Helvetica,sans-Serif" font-size="10.00">../header/farmermarket.h</text>
</a>
</g>
</g>
<!-- Node1&#45;&gt;Node2 -->
<g id="edge1" class="edge">
<title>Node1&#45;&gt;Node2</title>
<path fill="none" stroke="midnightblue" d="M218.29,-112.4C184.45,-102.07 139.08,-88.23 107.37,-78.56"/>
<polygon fill="midnightblue" stroke="midnightblue" points="108.18,-75.14 97.59,-75.57 106.13,-81.84 108.18,-75.14"/>
</g>
<!-- Node3 -->
<g id="node3" class="node">
<title>Node3</title>
<g id="a_node3"><a xlink:title=" ">
<polygon fill="white" stroke="#bfbfbf" points="93.5,-0.5 93.5,-19.5 143.5,-19.5 143.5,-0.5 93.5,-0.5"/>
<text text-anchor="middle" x="118.5" y="-7.5" font-family="Helvetica,sans-Serif" font-size="10.00">stdio.h</text>
</a>
</g>
</g>
<!-- Node1&#45;&gt;Node3 -->
<g id="edge3" class="edge">
<title>Node1&#45;&gt;Node3</title>
<path fill="none" stroke="midnightblue" d="M240.15,-112.37C224.34,-102.81 203.59,-89.5 186.5,-76 167,-60.6 146.66,-40.54 133.37,-26.81"/>
<polygon fill="midnightblue" stroke="midnightblue" points="135.86,-24.34 126.41,-19.53 130.8,-29.18 135.86,-24.34"/>
</g>
<!-- Node4 -->
<g id="node4" class="node">
<title>Node4</title>
<g id="a_node4"><a xlink:title=" ">
<polygon fill="white" stroke="#bfbfbf" points="195.5,-56.5 195.5,-75.5 257.5,-75.5 257.5,-56.5 195.5,-56.5"/>
<text text-anchor="middle" x="226.5" y="-63.5" font-family="Helvetica,sans-Serif" font-size="10.00">stdbool.h</text>
</a>
</g>
</g>
<!-- Node1&#45;&gt;Node4 -->
<g id="edge4" class="edge">
<title>Node1&#45;&gt;Node4</title>
<path fill="none" stroke="midnightblue" d="M255.49,-112.4C250.09,-103.93 243.17,-93.1 237.45,-84.14"/>
<polygon fill="midnightblue" stroke="midnightblue" points="240.36,-82.2 232.03,-75.66 234.46,-85.97 240.36,-82.2"/>
</g>
<!-- Node5 -->
<g id="node5" class="node">
<title>Node5</title>
<g id="a_node5"><a xlink:title=" ">
<polygon fill="white" stroke="#bfbfbf" points="276,-56.5 276,-75.5 329,-75.5 329,-56.5 276,-56.5"/>
<text text-anchor="middle" x="302.5" y="-63.5" font-family="Helvetica,sans-Serif" font-size="10.00">string.h</text>
</a>
</g>
</g>
<!-- Node1&#45;&gt;Node5 -->
<g id="edge5" class="edge">
<title>Node1&#45;&gt;Node5</title>
<path fill="none" stroke="midnightblue" d="M273.51,-112.4C278.91,-103.93 285.83,-93.1 291.55,-84.14"/>
<polygon fill="midnightblue" stroke="midnightblue" points="294.54,-85.97 296.97,-75.66 288.64,-82.2 294.54,-85.97"/>
</g>
<!-- Node6 -->
<g id="node6" class="node">
<title>Node6</title>
<g id="a_node6"><a xlink:title=" ">
<polygon fill="white" stroke="#bfbfbf" points="347,-56.5 347,-75.5 400,-75.5 400,-56.5 347,-56.5"/>
<text text-anchor="middle" x="373.5" y="-63.5" font-family="Helvetica,sans-Serif" font-size="10.00">stdlib.h</text>
</a>
</g>
</g>
<!-- Node1&#45;&gt;Node6 -->
<g id="edge6" class="edge">
<title>Node1&#45;&gt;Node6</title>
<path fill="none" stroke="midnightblue" d="M290.33,-112.4C307.97,-102.77 331.2,-90.09 348.63,-80.58"/>
<polygon fill="midnightblue" stroke="midnightblue" points="350.54,-83.52 357.64,-75.66 347.19,-77.38 350.54,-83.52"/>
</g>
<!-- Node7 -->
<g id="node7" class="node">
<title>Node7</title>
<g id="a_node7"><a xlink:title=" ">
<polygon fill="white" stroke="#bfbfbf" points="418.5,-56.5 418.5,-75.5 466.5,-75.5 466.5,-56.5 418.5,-56.5"/>
<text text-anchor="middle" x="442.5" y="-63.5" font-family="Helvetica,sans-Serif" font-size="10.00">time.h</text>
</a>
</g>
</g>
<!-- Node1&#45;&gt;Node7 -->
<g id="edge7" class="edge">
<title>Node1&#45;&gt;Node7</title>
<path fill="none" stroke="midnightblue" d="M306.68,-112.4C337.86,-101.98 379.75,-87.98 408.73,-78.29"/>
<polygon fill="midnightblue" stroke="midnightblue" points="410.02,-81.55 418.4,-75.06 407.8,-74.91 410.02,-81.55"/>
</g>
<!-- Node2&#45;&gt;Node3 -->
<g id="edge2" class="edge">
<title>Node2&#45;&gt;Node3</title>
<path fill="none" stroke="midnightblue" d="M77.59,-56.08C84.66,-48.3 95.09,-36.8 103.65,-27.37"/>
<polygon fill="midnightblue" stroke="midnightblue" points="106.43,-29.51 110.56,-19.75 101.25,-24.8 106.43,-29.51"/>
</g>
</g>
</svg>
