<?xml version="1.0" encoding="UTF-8" standalone="no"?>
<!DOCTYPE svg PUBLIC "-//W3C//DTD SVG 1.1//EN"
 "http://www.w3.org/Graphics/SVG/1.1/DTD/svg11.dtd">
<!-- Generated by graphviz version 2.43.0 (0)
 -->
<!-- Title: src/farmermarketapp/src/farmermarketapp.cpp Pages: 1 -->
<svg width="194pt" height="162pt"
 viewBox="0.00 0.00 194.00 162.00" xmlns="http://www.w3.org/2000/svg" xmlns:xlink="http://www.w3.org/1999/xlink">
<g id="graph0" class="graph" transform="scale(1 1) rotate(0) translate(4 158)">
<title>src/farmermarketapp/src/farmermarketapp.cpp</title>
<polygon fill="white" stroke="transparent" points="-4,4 -4,-158 190,-158 190,4 -4,4"/>
<!-- Node1 -->
<g id="node1" class="node">
<title>Node1</title>
<g id="a_node1"><a xlink:title="A simple program to demonstrate the usage of the farmermarket model class.">
<polygon fill="#bfbfbf" stroke="black" points="0,-123.5 0,-153.5 143,-153.5 143,-123.5 0,-123.5"/>
<text text-anchor="start" x="8" y="-141.5" font-family="Helvetica,sans-Serif" font-size="10.00">src/farmermarketapp</text>
<text text-anchor="middle" x="71.5" y="-130.5" font-family="Helvetica,sans-Serif" font-size="10.00">/src/farmermarketapp.cpp</text>
</a>
</g>
</g>
<!-- Node2 -->
<g id="node2" class="node">
<title>Node2</title>
<g id="a_node2"><a xlink:title=" ">
<polygon fill="white" stroke="#bfbfbf" points="46.5,-0.5 46.5,-19.5 96.5,-19.5 96.5,-0.5 46.5,-0.5"/>
<text text-anchor="middle" x="71.5" y="-7.5" font-family="Helvetica,sans-Serif" font-size="10.00">stdio.h</text>
</a>
</g>
</g>
<!-- Node1&#45;&gt;Node2 -->
<g id="edge1" class="edge">
<title>Node1&#45;&gt;Node2</title>
<path fill="none" stroke="midnightblue" d="M61.06,-123.31C54.6,-113.63 46.91,-100.2 43.5,-87 40.05,-73.66 39.71,-69.25 43.5,-56 46.4,-45.84 52.33,-35.75 57.99,-27.7"/>
<polygon fill="midnightblue" stroke="midnightblue" points="60.88,-29.69 64.09,-19.59 55.28,-25.48 60.88,-29.69"/>
</g>
<!-- Node3 -->
<g id="node3" class="node">
<title>Node3</title>
<g id="a_node3"><a xlink:href="farmermarket_8h.html" target="_top" xlink:title="Provides functions.">
<polygon fill="white" stroke="black" points="53,-56.5 53,-86.5 186,-86.5 186,-56.5 53,-56.5"/>
<text text-anchor="start" x="61" y="-74.5" font-family="Helvetica,sans-Serif" font-size="10.00">../../farmermarket</text>
<text text-anchor="middle" x="119.5" y="-63.5" font-family="Helvetica,sans-Serif" font-size="10.00">/header/farmermarket.h</text>
</a>
</g>
</g>
<!-- Node1&#45;&gt;Node3 -->
<g id="edge2" class="edge">
<title>Node1&#45;&gt;Node3</title>
<path fill="none" stroke="midnightblue" d="M81.92,-123.4C88.08,-115.05 96.03,-104.29 103.02,-94.81"/>
<polygon fill="midnightblue" stroke="midnightblue" points="105.98,-96.7 109.11,-86.58 100.35,-92.54 105.98,-96.7"/>
</g>
<!-- Node3&#45;&gt;Node2 -->
<g id="edge3" class="edge">
<title>Node3&#45;&gt;Node2</title>
<path fill="none" stroke="midnightblue" d="M108.12,-56.4C101.15,-47.75 92.19,-36.64 84.87,-27.58"/>
<polygon fill="midnightblue" stroke="midnightblue" points="87.49,-25.24 78.48,-19.66 82.04,-29.64 87.49,-25.24"/>
</g>
</g>
</svg>
