<?xml version="1.0" encoding="UTF-8" standalone="no"?>
<!DOCTYPE svg PUBLIC "-//W3C//DTD SVG 1.1//EN"
 "http://www.w3.org/Graphics/SVG/1.1/DTD/svg11.dtd">
<!-- Generated by graphviz version 9.0.0 (20230911.1827)
 -->
<!-- Title: src/farmermarket/src/farmermarket.cpp Pages: 1 -->
<svg width="498pt" height="152pt"
 viewBox="0.00 0.00 497.50 152.00" xmlns="http://www.w3.org/2000/svg" xmlns:xlink="http://www.w3.org/1999/xlink">
<g id="graph0" class="graph" transform="scale(1 1) rotate(0) translate(4 148)">
<title>src/farmermarket/src/farmermarket.cpp</title>
<!-- Node1 -->
<g id="Node000001" class="node">
<title>Node1</title>
<g id="a_Node000001"><a xlink:title=" ">
<polygon fill="#999999" stroke="#666666" points="329.25,-144 223.25,-144 223.25,-112 329.25,-112 329.25,-144"/>
<text text-anchor="start" x="231.25" y="-130.5" font-family="Helvetica,sans-Serif" font-size="10.00">src/farmermarket/src</text>
<text text-anchor="middle" x="276.25" y="-118.5" font-family="Helvetica,sans-Serif" font-size="10.00">/farmermarket.cpp</text>
</a>
</g>
</g>
<!-- Node2 -->
<g id="Node000002" class="node">
<title>Node2</title>
<g id="a_Node000002"><a xlink:href="farmermarket_8h.html" target="_top" xlink:title="Provides functions definations.">
<polygon fill="white" stroke="#666666" points="122.5,-76 0,-76 0,-56 122.5,-56 122.5,-76"/>
<text text-anchor="middle" x="61.25" y="-62.5" font-family="Helvetica,sans-Serif" font-size="10.00">../header/farmermarket.h</text>
</a>
</g>
</g>
<!-- Node1&#45;&gt;Node2 -->
<g id="edge1_Node000001_Node000002" class="edge">
<title>Node1&#45;&gt;Node2</title>
<g id="a_edge1_Node000001_Node000002"><a xlink:title=" ">
<path fill="none" stroke="#63b8ff" d="M222.83,-112.09C186.96,-102.08 140.23,-89.04 106.26,-79.56"/>
<polygon fill="#63b8ff" stroke="#63b8ff" points="107.29,-76.22 96.72,-76.9 105.41,-82.96 107.29,-76.22"/>
</a>
</g>
</g>
<!-- Node3 -->
<g id="Node000003" class="node">
<title>Node3</title>
<g id="a_Node000003"><a xlink:title=" ">
<polygon fill="#e0e0e0" stroke="#999999" points="127.88,-20 82.62,-20 82.62,0 127.88,0 127.88,-20"/>
<text text-anchor="middle" x="105.25" y="-6.5" font-family="Helvetica,sans-Serif" font-size="10.00">stdio.h</text>
</a>
</g>
</g>
<!-- Node1&#45;&gt;Node3 -->
<g id="edge3_Node000001_Node000003" class="edge">
<title>Node1&#45;&gt;Node3</title>
<g id="a_edge3_Node000001_Node000003"><a xlink:title=" ">
<path fill="none" stroke="#63b8ff" d="M235.54,-111.57C214.75,-102.73 189.61,-90.51 169.25,-76 150.39,-62.56 132.19,-43.26 120.05,-29.19"/>
<polygon fill="#63b8ff" stroke="#63b8ff" points="122.77,-26.98 113.66,-21.57 117.41,-31.48 122.77,-26.98"/>
</a>
</g>
</g>
<!-- Node4 -->
<g id="Node000004" class="node">
<title>Node4</title>
<g id="a_Node000004"><a xlink:title=" ">
<polygon fill="#e0e0e0" stroke="#999999" points="234.12,-76 178.38,-76 178.38,-56 234.12,-56 234.12,-76"/>
<text text-anchor="middle" x="206.25" y="-62.5" font-family="Helvetica,sans-Serif" font-size="10.00">stdbool.h</text>
</a>
</g>
</g>
<!-- Node1&#45;&gt;Node4 -->
<g id="edge4_Node000001_Node000004" class="edge">
<title>Node1&#45;&gt;Node4</title>
<g id="a_edge4_Node000001_Node000004"><a xlink:title=" ">
<path fill="none" stroke="#63b8ff" d="M258.22,-111.55C248.3,-103.04 235.97,-92.48 225.81,-83.77"/>
<polygon fill="#63b8ff" stroke="#63b8ff" points="228.25,-81.24 218.38,-77.39 223.69,-86.56 228.25,-81.24"/>
</a>
</g>
</g>
<!-- Node5 -->
<g id="Node000005" class="node">
<title>Node5</title>
<g id="a_Node000005"><a xlink:title=" ">
<polygon fill="#e0e0e0" stroke="#999999" points="300.38,-76 252.12,-76 252.12,-56 300.38,-56 300.38,-76"/>
<text text-anchor="middle" x="276.25" y="-62.5" font-family="Helvetica,sans-Serif" font-size="10.00">string.h</text>
</a>
</g>
</g>
<!-- Node1&#45;&gt;Node5 -->
<g id="edge5_Node000001_Node000005" class="edge">
<title>Node1&#45;&gt;Node5</title>
<g id="a_edge5_Node000001_Node000005"><a xlink:title=" ">
<path fill="none" stroke="#63b8ff" d="M276.25,-111.55C276.25,-104.34 276.25,-95.66 276.25,-87.88"/>
<polygon fill="#63b8ff" stroke="#63b8ff" points="279.75,-87.92 276.25,-77.92 272.75,-87.92 279.75,-87.92"/>
</a>
</g>
</g>
<!-- Node6 -->
<g id="Node000006" class="node">
<title>Node6</title>
<g id="a_Node000006"><a xlink:title=" ">
<polygon fill="#e0e0e0" stroke="#999999" points="366,-76 318.5,-76 318.5,-56 366,-56 366,-76"/>
<text text-anchor="middle" x="342.25" y="-62.5" font-family="Helvetica,sans-Serif" font-size="10.00">stdlib.h</text>
</a>
</g>
</g>
<!-- Node1&#45;&gt;Node6 -->
<g id="edge6_Node000001_Node000006" class="edge">
<title>Node1&#45;&gt;Node6</title>
<g id="a_edge6_Node000001_Node000006"><a xlink:title=" ">
<path fill="none" stroke="#63b8ff" d="M293.25,-111.55C302.51,-103.13 313.99,-92.69 323.51,-84.04"/>
<polygon fill="#63b8ff" stroke="#63b8ff" points="325.74,-86.74 330.78,-77.43 321.03,-81.56 325.74,-86.74"/>
</a>
</g>
</g>
<!-- Node7 -->
<g id="Node000007" class="node">
<title>Node7</title>
<g id="a_Node000007"><a xlink:title=" ">
<polygon fill="#e0e0e0" stroke="#999999" points="426.75,-76 383.75,-76 383.75,-56 426.75,-56 426.75,-76"/>
<text text-anchor="middle" x="405.25" y="-62.5" font-family="Helvetica,sans-Serif" font-size="10.00">time.h</text>
</a>
</g>
</g>
<!-- Node1&#45;&gt;Node7 -->
<g id="edge7_Node000001_Node000007" class="edge">
<title>Node1&#45;&gt;Node7</title>
<g id="a_edge7_Node000001_Node000007"><a xlink:title=" ">
<path fill="none" stroke="#63b8ff" d="M309.47,-111.55C329.63,-102.17 355.16,-90.3 374.79,-81.17"/>
<polygon fill="#63b8ff" stroke="#63b8ff" points="376.06,-84.44 383.65,-77.05 373.11,-78.09 376.06,-84.44"/>
</a>
</g>
</g>
<!-- Node8 -->
<g id="Node000008" class="node">
<title>Node8</title>
<g id="a_Node000008"><a xlink:title=" ">
<polygon fill="#e0e0e0" stroke="#999999" points="489.5,-76 445,-76 445,-56 489.5,-56 489.5,-76"/>
<text text-anchor="middle" x="467.25" y="-62.5" font-family="Helvetica,sans-Serif" font-size="10.00">climits</text>
</a>
</g>
</g>
<!-- Node1&#45;&gt;Node8 -->
<g id="edge8_Node000001_Node000008" class="edge">
<title>Node1&#45;&gt;Node8</title>
<g id="a_edge8_Node000001_Node000008"><a xlink:title=" ">
<path fill="none" stroke="#63b8ff" d="M325.44,-111.55C359.45,-100.86 403.8,-86.93 433.77,-77.52"/>
<polygon fill="#63b8ff" stroke="#63b8ff" points="434.57,-80.93 443.06,-74.6 432.48,-74.26 434.57,-80.93"/>
</a>
</g>
</g>
<!-- Node2&#45;&gt;Node3 -->
<g id="edge2_Node000002_Node000003" class="edge">
<title>Node2&#45;&gt;Node3</title>
<g id="a_edge2_Node000002_Node000003"><a xlink:title=" ">
<path fill="none" stroke="#63b8ff" d="M68.91,-55.59C74.84,-48.32 83.24,-38.02 90.46,-29.15"/>
<polygon fill="#63b8ff" stroke="#63b8ff" points="93.11,-31.43 96.72,-21.47 87.69,-27.01 93.11,-31.43"/>
</a>
</g>
</g>
</g>
</svg>
