<?xml version="1.0" encoding="UTF-8" standalone="no"?>
<!DOCTYPE svg PUBLIC "-//W3C//DTD SVG 1.1//EN"
 "http://www.w3.org/Graphics/SVG/1.1/DTD/svg11.dtd">
<!-- Generated by graphviz version 9.0.0 (20230911.1827)
 -->
<!-- Title: src/farmermarket/src/farmermarket.cpp Pages: 1 -->
<svg width="232pt" height="152pt"
 viewBox="0.00 0.00 231.88 152.00" xmlns="http://www.w3.org/2000/svg" xmlns:xlink="http://www.w3.org/1999/xlink">

<svg id="main" version="1.1" xmlns="http://www.w3.org/2000/svg" xmlns:xlink="http://www.w3.org/1999/xlink" xml:space="preserve" onload="init(evt)">
<style type="text/css"><![CDATA[
.node, .edge {opacity: 0.7;}
.node.selected, .edge.selected {opacity: 1;}
.edge:hover path { stroke: red; }
.edge:hover polygon { stroke: red; fill: red; }
]]></style>
<script type="application/ecmascript" xlink:href="svg.min.js"/>
<svg id="graph" class="graph">
<g id="graph0" class="graph" transform="scale(1 1) rotate(0) translate(4 148)">
<title>src/farmermarket/src/farmermarket.cpp</title>
<!-- Node1 -->
<g id="Node000001" class="node">
<title>Node1</title>
<g id="a_Node000001"><a xlink:title=" ">
<polygon fill="#999999" stroke="#666666" points="203.25,-144 97.25,-144 97.25,-112 203.25,-112 203.25,-144"/>
<text text-anchor="start" x="105.25" y="-130.5" font-family="Helvetica,sans-Serif" font-size="10.00">src/farmermarket/src</text>
<text text-anchor="middle" x="150.25" y="-118.5" font-family="Helvetica,sans-Serif" font-size="10.00">/farmermarket.cpp</text>
</a>
</g>
</g>
<!-- Node2 -->
<g id="Node000002" class="node">
<title>Node2</title>
<g id="a_Node000002"><a xlink:href="farmermarket_8h.html" target="_top" xlink:title="Provides functions.">
<polygon fill="white" stroke="#666666" points="122.5,-76 0,-76 0,-56 122.5,-56 122.5,-76"/>
<text text-anchor="middle" x="61.25" y="-62.5" font-family="Helvetica,sans-Serif" font-size="10.00">../header/farmermarket.h</text>
</a>
</g>
</g>
<!-- Node1&#45;&gt;Node2 -->
<g id="edge1_Node000001_Node000002" class="edge">
<title>Node1&#45;&gt;Node2</title>
<g id="a_edge1_Node000001_Node000002"><a xlink:title=" ">
<path fill="none" stroke="#63b8ff" d="M127.33,-111.55C114.2,-102.69 97.75,-91.61 84.56,-82.71"/>
<polygon fill="#63b8ff" stroke="#63b8ff" points="86.71,-79.94 76.46,-77.25 82.8,-85.75 86.71,-79.94"/>
</a>
</g>
</g>
<!-- Node3 -->
<g id="Node000003" class="node">
<title>Node3</title>
<g id="a_Node000003"><a xlink:title=" ">
<polygon fill="#e0e0e0" stroke="#999999" points="132,-20 78.5,-20 78.5,0 132,0 132,-20"/>
<text text-anchor="middle" x="105.25" y="-6.5" font-family="Helvetica,sans-Serif" font-size="10.00">iostream</text>
</a>
</g>
</g>
<!-- Node1&#45;&gt;Node3 -->
<g id="edge3_Node000001_Node000003" class="edge">
<title>Node1&#45;&gt;Node3</title>
<g id="a_edge3_Node000001_Node000003"><a xlink:title=" ">
<path fill="none" stroke="#63b8ff" d="M147.36,-111.66C144.33,-97.02 138.92,-74.51 131.25,-56 127.55,-47.06 122.38,-37.71 117.63,-29.87"/>
<polygon fill="#63b8ff" stroke="#63b8ff" points="120.69,-28.15 112.39,-21.56 114.77,-31.89 120.69,-28.15"/>
</a>
</g>
</g>
<!-- Node4 -->
<g id="Node000004" class="node">
<title>Node4</title>
<g id="a_Node000004"><a xlink:title=" ">
<polygon fill="#e0e0e0" stroke="#999999" points="223.88,-76 178.62,-76 178.62,-56 223.88,-56 223.88,-76"/>
<text text-anchor="middle" x="201.25" y="-62.5" font-family="Helvetica,sans-Serif" font-size="10.00">cstring</text>
</a>
</g>
</g>
<!-- Node1&#45;&gt;Node4 -->
<g id="edge4_Node000001_Node000004" class="edge">
<title>Node1&#45;&gt;Node4</title>
<g id="a_edge4_Node000001_Node000004"><a xlink:title=" ">
<path fill="none" stroke="#63b8ff" d="M163.38,-111.55C170.25,-103.48 178.68,-93.55 185.85,-85.12"/>
<polygon fill="#63b8ff" stroke="#63b8ff" points="188.46,-87.45 192.27,-77.56 183.13,-82.91 188.46,-87.45"/>
</a>
</g>
</g>
<!-- Node2&#45;&gt;Node3 -->
<g id="edge2_Node000002_Node000003" class="edge">
<title>Node2&#45;&gt;Node3</title>
<g id="a_edge2_Node000002_Node000003"><a xlink:title=" ">
<path fill="none" stroke="#63b8ff" d="M68.91,-55.59C74.84,-48.32 83.24,-38.02 90.46,-29.15"/>
<polygon fill="#63b8ff" stroke="#63b8ff" points="93.11,-31.43 96.72,-21.47 87.69,-27.01 93.11,-31.43"/>
</a>
</g>
</g>
</g>
</svg>
</svg>

<style type='text/css'>
<![CDATA[
[data-mouse-over-selected='false'] { opacity: 0.7; }
[data-mouse-over-selected='true']  { opacity: 1.0; }
]]>
</style>
<script type="application/ecmascript"><![CDATA[
document.addEventListener('DOMContentLoaded', (event) => {
  highlightEdges();
  highlightAdjacentNodes();
});
]]></script>
</svg>
