<?xml version="1.0" encoding="UTF-8" standalone="no"?>
<!DOCTYPE svg PUBLIC "-//W3C//DTD SVG 1.1//EN"
 "http://www.w3.org/Graphics/SVG/1.1/DTD/svg11.dtd">
<!-- Generated by graphviz version 9.0.0 (20230911.1827)
 -->
<!-- Title: src/farmermarket/src/farmermarket.cpp Pages: 1 -->
<svg width="435pt" height="152pt"
 viewBox="0.00 0.00 434.75 152.00" xmlns="http://www.w3.org/2000/svg" xmlns:xlink="http://www.w3.org/1999/xlink">
<g id="graph0" class="graph" transform="scale(1 1) rotate(0) translate(4 148)">
<title>src/farmermarket/src/farmermarket.cpp</title>
<!-- Node1 -->
<g id="Node000001" class="node">
<title>Node1</title>
<g id="a_Node000001"><a xlink:title=" ">
<polygon fill="#999999" stroke="#666666" points="294.25,-144 188.25,-144 188.25,-112 294.25,-112 294.25,-144"/>
<text text-anchor="start" x="196.25" y="-130.5" font-family="Helvetica,sans-Serif" font-size="10.00">src/farmermarket/src</text>
<text text-anchor="middle" x="241.25" y="-118.5" font-family="Helvetica,sans-Serif" font-size="10.00">/farmermarket.cpp</text>
</a>
</g>
</g>
<!-- Node2 -->
<g id="Node000002" class="node">
<title>Node2</title>
<g id="a_Node000002"><a xlink:href="farmermarket_8h.html" target="_top" xlink:title="Provides functions.">
<polygon fill="white" stroke="#666666" points="122.5,-76 0,-76 0,-56 122.5,-56 122.5,-76"/>
<text text-anchor="middle" x="61.25" y="-62.5" font-family="Helvetica,sans-Serif" font-size="10.00">../header/farmermarket.h</text>
</a>
</g>
</g>
<!-- Node1&#45;&gt;Node2 -->
<g id="edge1_Node000001_Node000002" class="edge">
<title>Node1&#45;&gt;Node2</title>
<g id="a_edge1_Node000001_Node000002"><a xlink:title=" ">
<path fill="none" stroke="#63b8ff" d="M194.9,-111.55C165.69,-101.81 128.4,-89.38 100.63,-80.13"/>
<polygon fill="#63b8ff" stroke="#63b8ff" points="101.77,-76.82 91.17,-76.97 99.55,-83.46 101.77,-76.82"/>
</a>
</g>
</g>
<!-- Node3 -->
<g id="Node000003" class="node">
<title>Node3</title>
<g id="a_Node000003"><a xlink:title=" ">
<polygon fill="#e0e0e0" stroke="#999999" points="127.88,-20 82.62,-20 82.62,0 127.88,0 127.88,-20"/>
<text text-anchor="middle" x="105.25" y="-6.5" font-family="Helvetica,sans-Serif" font-size="10.00">stdio.h</text>
</a>
</g>
</g>
<!-- Node1&#45;&gt;Node3 -->
<g id="edge3_Node000001_Node000003" class="edge">
<title>Node1&#45;&gt;Node3</title>
<g id="a_edge3_Node000001_Node000003"><a xlink:title=" ">
<path fill="none" stroke="#63b8ff" d="M217.45,-111.69C203.03,-102.05 184.54,-89 169.25,-76 151.8,-61.16 133.64,-42.34 121.14,-28.78"/>
<polygon fill="#63b8ff" stroke="#63b8ff" points="123.81,-26.51 114.49,-21.46 118.63,-31.21 123.81,-26.51"/>
</a>
</g>
</g>
<!-- Node4 -->
<g id="Node000004" class="node">
<title>Node4</title>
<g id="a_Node000004"><a xlink:title=" ">
<polygon fill="#e0e0e0" stroke="#999999" points="234.12,-76 178.38,-76 178.38,-56 234.12,-56 234.12,-76"/>
<text text-anchor="middle" x="206.25" y="-62.5" font-family="Helvetica,sans-Serif" font-size="10.00">stdbool.h</text>
</a>
</g>
</g>
<!-- Node1&#45;&gt;Node4 -->
<g id="edge4_Node000001_Node000004" class="edge">
<title>Node1&#45;&gt;Node4</title>
<g id="a_edge4_Node000001_Node000004"><a xlink:title=" ">
<path fill="none" stroke="#63b8ff" d="M232.24,-111.55C227.73,-103.82 222.23,-94.4 217.46,-86.21"/>
<polygon fill="#63b8ff" stroke="#63b8ff" points="220.56,-84.59 212.5,-77.72 214.52,-88.12 220.56,-84.59"/>
</a>
</g>
</g>
<!-- Node5 -->
<g id="Node000005" class="node">
<title>Node5</title>
<g id="a_Node000005"><a xlink:title=" ">
<polygon fill="#e0e0e0" stroke="#999999" points="300.38,-76 252.12,-76 252.12,-56 300.38,-56 300.38,-76"/>
<text text-anchor="middle" x="276.25" y="-62.5" font-family="Helvetica,sans-Serif" font-size="10.00">string.h</text>
</a>
</g>
</g>
<!-- Node1&#45;&gt;Node5 -->
<g id="edge5_Node000001_Node000005" class="edge">
<title>Node1&#45;&gt;Node5</title>
<g id="a_edge5_Node000001_Node000005"><a xlink:title=" ">
<path fill="none" stroke="#63b8ff" d="M250.26,-111.55C254.77,-103.82 260.27,-94.4 265.04,-86.21"/>
<polygon fill="#63b8ff" stroke="#63b8ff" points="267.98,-88.12 270,-77.72 261.94,-84.59 267.98,-88.12"/>
</a>
</g>
</g>
<!-- Node6 -->
<g id="Node000006" class="node">
<title>Node6</title>
<g id="a_Node000006"><a xlink:title=" ">
<polygon fill="#e0e0e0" stroke="#999999" points="366,-76 318.5,-76 318.5,-56 366,-56 366,-76"/>
<text text-anchor="middle" x="342.25" y="-62.5" font-family="Helvetica,sans-Serif" font-size="10.00">stdlib.h</text>
</a>
</g>
</g>
<!-- Node1&#45;&gt;Node6 -->
<g id="edge6_Node000001_Node000006" class="edge">
<title>Node1&#45;&gt;Node6</title>
<g id="a_edge6_Node000001_Node000006"><a xlink:title=" ">
<path fill="none" stroke="#63b8ff" d="M267.26,-111.55C282.46,-102.52 301.56,-91.17 316.68,-82.19"/>
<polygon fill="#63b8ff" stroke="#63b8ff" points="318.3,-85.3 325.11,-77.18 314.73,-79.28 318.3,-85.3"/>
</a>
</g>
</g>
<!-- Node7 -->
<g id="Node000007" class="node">
<title>Node7</title>
<g id="a_Node000007"><a xlink:title=" ">
<polygon fill="#e0e0e0" stroke="#999999" points="426.75,-76 383.75,-76 383.75,-56 426.75,-56 426.75,-76"/>
<text text-anchor="middle" x="405.25" y="-62.5" font-family="Helvetica,sans-Serif" font-size="10.00">time.h</text>
</a>
</g>
</g>
<!-- Node1&#45;&gt;Node7 -->
<g id="edge7_Node000001_Node000007" class="edge">
<title>Node1&#45;&gt;Node7</title>
<g id="a_edge7_Node000001_Node000007"><a xlink:title=" ">
<path fill="none" stroke="#63b8ff" d="M283.48,-111.55C311.26,-101.39 347.07,-88.28 372.66,-78.92"/>
<polygon fill="#63b8ff" stroke="#63b8ff" points="373.67,-82.28 381.86,-75.56 371.27,-75.71 373.67,-82.28"/>
</a>
</g>
</g>
<!-- Node2&#45;&gt;Node3 -->
<g id="edge2_Node000002_Node000003" class="edge">
<title>Node2&#45;&gt;Node3</title>
<g id="a_edge2_Node000002_Node000003"><a xlink:title=" ">
<path fill="none" stroke="#63b8ff" d="M68.91,-55.59C74.84,-48.32 83.24,-38.02 90.46,-29.15"/>
<polygon fill="#63b8ff" stroke="#63b8ff" points="93.11,-31.43 96.72,-21.47 87.69,-27.01 93.11,-31.43"/>
</a>
</g>
</g>
</g>
</svg>
