<?xml version="1.0" encoding="UTF-8" standalone="no"?>
<!DOCTYPE svg PUBLIC "-//W3C//DTD SVG 1.1//EN"
 "http://www.w3.org/Graphics/SVG/1.1/DTD/svg11.dtd">
<!-- Generated by graphviz version 2.43.0 (0)
 -->
<!-- Title: src/farmermarketapp Pages: 1 -->
<svg width="302pt" height="175pt"
 viewBox="0.00 0.00 302.00 175.00" xmlns="http://www.w3.org/2000/svg" xmlns:xlink="http://www.w3.org/1999/xlink">
<g id="graph0" class="graph" transform="scale(1 1) rotate(0) translate(4 171)">
<title>src/farmermarketapp</title>
<polygon fill="white" stroke="transparent" points="-4,4 -4,-171 298,-171 298,4 -4,4"/>
<g id="clust1" class="cluster">
<title>clusterdir_68267d1309a1af8e8297ef4c3efbcdba</title>
<g id="a_clust1"><a xlink:href="dir_68267d1309a1af8e8297ef4c3efbcdba.html" xlink:title="src">
<polygon fill="#ddddee" stroke="black" points="8,-8 8,-159 286,-159 286,-8 8,-8"/>
<text text-anchor="middle" x="147" y="-147" font-family="Helvetica,sans-Serif" font-size="10.00">src</text>
</a>
</g>
</g>
<g id="clust2" class="cluster">
<title>clusterdir_3a253e50da655edcbd927550b5cddd03</title>
<g id="a_clust2"><a xlink:href="dir_3a253e50da655edcbd927550b5cddd03.html">
<polygon fill="#eeeeff" stroke="black" points="16,-80 16,-132 278,-132 278,-80 16,-80"/>
</a>
</g>
</g>
<!-- dir_3a47cbe924e87139ff7e309a79a899d6 -->
<g id="node1" class="node">
<title>dir_3a47cbe924e87139ff7e309a79a899d6</title>
<g id="a_node1"><a xlink:href="dir_3a47cbe924e87139ff7e309a79a899d6.html" xlink:title="farmermarket">
<polygon fill="white" stroke="red" points="100,-52 16,-52 16,-16 100,-16 100,-52"/>
<text text-anchor="middle" x="58" y="-31.5" font-family="Helvetica,sans-Serif" font-size="10.00">farmermarket</text>
</a>
</g>
</g>
<!-- dir_3a253e50da655edcbd927550b5cddd03 -->
<g id="node2" class="node">
<title>dir_3a253e50da655edcbd927550b5cddd03</title>
<text text-anchor="middle" x="219" y="-103.5" font-family="Helvetica,sans-Serif" font-size="10.00">farmermarketapp</text>
</g>
<!-- dir_fbb2a13cc3fb01b613c02ab29f831d29 -->
<g id="node3" class="node">
<title>dir_fbb2a13cc3fb01b613c02ab29f831d29</title>
<g id="a_node3"><a xlink:href="dir_fbb2a13cc3fb01b613c02ab29f831d29.html" xlink:title="header">
<polygon fill="white" stroke="black" points="150,-124 96,-124 96,-88 150,-88 150,-124"/>
<text text-anchor="middle" x="123" y="-103.5" font-family="Helvetica,sans-Serif" font-size="10.00">header</text>
</a>
</g>
</g>
<!-- dir_534738d89e67b1e1f7c23fc3ef67309e -->
<g id="node4" class="node">
<title>dir_534738d89e67b1e1f7c23fc3ef67309e</title>
<g id="a_node4"><a xlink:href="dir_534738d89e67b1e1f7c23fc3ef67309e.html" xlink:title="src">
<polygon fill="white" stroke="black" points="78,-124 24,-124 24,-88 78,-88 78,-124"/>
<text text-anchor="middle" x="51" y="-103.5" font-family="Helvetica,sans-Serif" font-size="10.00">src</text>
</a>
</g>
</g>
<!-- dir_534738d89e67b1e1f7c23fc3ef67309e&#45;&gt;dir_3a47cbe924e87139ff7e309a79a899d6 -->
<g id="edge1" class="edge">
<title>dir_534738d89e67b1e1f7c23fc3ef67309e&#45;&gt;dir_3a47cbe924e87139ff7e309a79a899d6</title>
<path fill="none" stroke="black" d="M52.73,-87.7C53.5,-79.98 54.43,-70.71 55.29,-62.11"/>
<polygon fill="black" stroke="black" points="58.78,-62.4 56.29,-52.1 51.81,-61.71 58.78,-62.4"/>
<g id="a_edge1&#45;headlabel"><a xlink:href="dir_000006_000001.html" xlink:title="1">
<text text-anchor="middle" x="61.24" y="-63.76" font-family="Helvetica,sans-Serif" font-size="10.00">1</text>
</a>
</g>
</g>
</g>
</svg>
