<?xml version="1.0" encoding="UTF-8" standalone="no"?>
<!DOCTYPE svg PUBLIC "-//W3C//DTD SVG 1.1//EN"
 "http://www.w3.org/Graphics/SVG/1.1/DTD/svg11.dtd">
<!-- Generated by graphviz version 2.43.0 (0)
 -->
<!-- Title: src/farmermarketapp/src Pages: 1 -->
<svg width="126pt" height="151pt"
 viewBox="0.00 0.00 126.00 151.00" xmlns="http://www.w3.org/2000/svg" xmlns:xlink="http://www.w3.org/1999/xlink">
<g id="graph0" class="graph" transform="scale(1 1) rotate(0) translate(4 147)">
<title>src/farmermarketapp/src</title>
<polygon fill="white" stroke="transparent" points="-4,4 -4,-147 122,-147 122,4 -4,4"/>
<g id="clust1" class="cluster">
<title>clusterdir_3a253e50da655edcbd927550b5cddd03</title>
<g id="a_clust1"><a xlink:href="dir_3a253e50da655edcbd927550b5cddd03.html" xlink:title="farmermarketapp">
<polygon fill="#ddddee" stroke="black" points="8,-64 8,-135 110,-135 110,-64 8,-64"/>
<text text-anchor="middle" x="59" y="-123" font-family="Helvetica,sans-Serif" font-size="10.00">farmermarketapp</text>
</a>
</g>
</g>
<!-- dir_534738d89e67b1e1f7c23fc3ef67309e -->
<g id="node1" class="node">
<title>dir_534738d89e67b1e1f7c23fc3ef67309e</title>
<g id="a_node1"><a xlink:href="dir_534738d89e67b1e1f7c23fc3ef67309e.html" xlink:title="src">
<polygon fill="#eeeeff" stroke="black" points="86,-108 32,-108 32,-72 86,-72 86,-108"/>
<text text-anchor="middle" x="59" y="-87.5" font-family="Helvetica,sans-Serif" font-size="10.00">src</text>
</a>
</g>
</g>
<!-- dir_3a47cbe924e87139ff7e309a79a899d6 -->
<g id="node2" class="node">
<title>dir_3a47cbe924e87139ff7e309a79a899d6</title>
<g id="a_node2"><a xlink:href="dir_3a47cbe924e87139ff7e309a79a899d6.html" xlink:title="farmermarket">
<polygon fill="white" stroke="red" points="101,-36 17,-36 17,0 101,0 101,-36"/>
<text text-anchor="middle" x="59" y="-15.5" font-family="Helvetica,sans-Serif" font-size="10.00">farmermarket</text>
</a>
</g>
</g>
<!-- dir_534738d89e67b1e1f7c23fc3ef67309e&#45;&gt;dir_3a47cbe924e87139ff7e309a79a899d6 -->
<g id="edge1" class="edge">
<title>dir_534738d89e67b1e1f7c23fc3ef67309e&#45;&gt;dir_3a47cbe924e87139ff7e309a79a899d6</title>
<path fill="none" stroke="black" d="M59,-71.7C59,-63.98 59,-54.71 59,-46.11"/>
<polygon fill="black" stroke="black" points="62.5,-46.1 59,-36.1 55.5,-46.1 62.5,-46.1"/>
<g id="a_edge1&#45;headlabel"><a xlink:href="dir_000006_000001.html" xlink:title="1">
<text text-anchor="middle" x="65.34" y="-47.2" font-family="Helvetica,sans-Serif" font-size="10.00">1</text>
</a>
</g>
</g>
</g>
</svg>
