<?xml version="1.0" encoding="UTF-8" standalone="no"?>
<!DOCTYPE svg PUBLIC "-//W3C//DTD SVG 1.1//EN"
 "http://www.w3.org/Graphics/SVG/1.1/DTD/svg11.dtd">
<!-- Generated by graphviz version 2.43.0 (0)
 -->
<!-- Title: src/farmermarket/src/farmermarket.cpp Pages: 1 -->
<svg width="337pt" height="151pt"
 viewBox="0.00 0.00 337.00 151.00" xmlns="http://www.w3.org/2000/svg" xmlns:xlink="http://www.w3.org/1999/xlink">
<g id="graph0" class="graph" transform="scale(1 1) rotate(0) translate(4 147)">
<title>src/farmermarket/src/farmermarket.cpp</title>
<polygon fill="white" stroke="transparent" points="-4,4 -4,-147 333,-147 333,4 -4,4"/>
<!-- Node1 -->
<g id="node1" class="node">
<title>Node1</title>
<g id="a_node1"><a xlink:title=" ">
<polygon fill="#bfbfbf" stroke="black" points="137,-112.5 137,-142.5 256,-142.5 256,-112.5 137,-112.5"/>
<text text-anchor="start" x="145" y="-130.5" font-family="Helvetica,sans-Serif" font-size="10.00">src/farmermarket/src</text>
<text text-anchor="middle" x="196.5" y="-119.5" font-family="Helvetica,sans-Serif" font-size="10.00">/farmermarket.cpp</text>
</a>
</g>
</g>
<!-- Node2 -->
<g id="node2" class="node">
<title>Node2</title>
<g id="a_node2"><a xlink:href="$farmermarket_8h.html" xlink:title="Provides functions.">
<polygon fill="white" stroke="black" points="0,-56.5 0,-75.5 139,-75.5 139,-56.5 0,-56.5"/>
<text text-anchor="middle" x="69.5" y="-63.5" font-family="Helvetica,sans-Serif" font-size="10.00">../header/farmermarket.h</text>
</a>
</g>
</g>
<!-- Node1&#45;&gt;Node2 -->
<g id="edge1" class="edge">
<title>Node1&#45;&gt;Node2</title>
<path fill="none" stroke="midnightblue" d="M166.4,-112.4C145.38,-102.55 117.53,-89.5 97.08,-79.92"/>
<polygon fill="midnightblue" stroke="midnightblue" points="98.52,-76.73 87.98,-75.66 95.55,-83.07 98.52,-76.73"/>
</g>
<!-- Node3 -->
<g id="node3" class="node">
<title>Node3</title>
<g id="a_node3"><a xlink:title=" ">
<polygon fill="white" stroke="#bfbfbf" points="93.5,-0.5 93.5,-19.5 143.5,-19.5 143.5,-0.5 93.5,-0.5"/>
<text text-anchor="middle" x="118.5" y="-7.5" font-family="Helvetica,sans-Serif" font-size="10.00">stdio.h</text>
</a>
</g>
</g>
<!-- Node1&#45;&gt;Node3 -->
<g id="edge3" class="edge">
<title>Node1&#45;&gt;Node3</title>
<path fill="none" stroke="midnightblue" d="M186.94,-112.34C172.56,-91.05 145.44,-50.89 130,-28.03"/>
<polygon fill="midnightblue" stroke="midnightblue" points="132.85,-26 124.35,-19.67 127.05,-29.92 132.85,-26"/>
</g>
<!-- Node4 -->
<g id="node4" class="node">
<title>Node4</title>
<g id="a_node4"><a xlink:title=" ">
<polygon fill="white" stroke="#bfbfbf" points="195.5,-56.5 195.5,-75.5 257.5,-75.5 257.5,-56.5 195.5,-56.5"/>
<text text-anchor="middle" x="226.5" y="-63.5" font-family="Helvetica,sans-Serif" font-size="10.00">stdbool.h</text>
</a>
</g>
</g>
<!-- Node1&#45;&gt;Node4 -->
<g id="edge4" class="edge">
<title>Node1&#45;&gt;Node4</title>
<path fill="none" stroke="midnightblue" d="M203.61,-112.4C207.79,-104.11 213.11,-93.55 217.57,-84.71"/>
<polygon fill="midnightblue" stroke="midnightblue" points="220.76,-86.16 222.13,-75.66 214.51,-83.01 220.76,-86.16"/>
</g>
<!-- Node5 -->
<g id="node5" class="node">
<title>Node5</title>
<g id="a_node5"><a xlink:title=" ">
<polygon fill="white" stroke="#bfbfbf" points="276,-56.5 276,-75.5 329,-75.5 329,-56.5 276,-56.5"/>
<text text-anchor="middle" x="302.5" y="-63.5" font-family="Helvetica,sans-Serif" font-size="10.00">string.h</text>
</a>
</g>
</g>
<!-- Node1&#45;&gt;Node5 -->
<g id="edge5" class="edge">
<title>Node1&#45;&gt;Node5</title>
<path fill="none" stroke="midnightblue" d="M221.62,-112.4C238.77,-102.77 261.36,-90.09 278.31,-80.58"/>
<polygon fill="midnightblue" stroke="midnightblue" points="280.07,-83.6 287.08,-75.66 276.64,-77.5 280.07,-83.6"/>
</g>
<!-- Node2&#45;&gt;Node3 -->
<g id="edge2" class="edge">
<title>Node2&#45;&gt;Node3</title>
<path fill="none" stroke="midnightblue" d="M77.59,-56.08C84.66,-48.3 95.09,-36.8 103.65,-27.37"/>
<polygon fill="midnightblue" stroke="midnightblue" points="106.43,-29.51 110.56,-19.75 101.25,-24.8 106.43,-29.51"/>
</g>
</g>
</svg>
