<?xml version="1.0" encoding="UTF-8" standalone="no"?>
<!DOCTYPE svg PUBLIC "-//W3C//DTD SVG 1.1//EN"
 "http://www.w3.org/Graphics/SVG/1.1/DTD/svg11.dtd">
<!-- Generated by graphviz version 2.43.0 (0)
 -->
<!-- Title: src/farmermarket/src/farmermarket.cpp Pages: 1 -->
<svg width="543pt" height="151pt"
 viewBox="0.00 0.00 542.50 151.00" xmlns="http://www.w3.org/2000/svg" xmlns:xlink="http://www.w3.org/1999/xlink">
<g id="graph0" class="graph" transform="scale(1 1) rotate(0) translate(4 147)">
<title>src/farmermarket/src/farmermarket.cpp</title>
<polygon fill="white" stroke="transparent" points="-4,4 -4,-147 538.5,-147 538.5,4 -4,4"/>
<!-- Node1 -->
<g id="node1" class="node">
<title>Node1</title>
<g id="a_node1"><a xlink:title=" ">
<polygon fill="#bfbfbf" stroke="black" points="243,-112.5 243,-142.5 362,-142.5 362,-112.5 243,-112.5"/>
<text text-anchor="start" x="251" y="-130.5" font-family="Helvetica,sans-Serif" font-size="10.00">src/farmermarket/src</text>
<text text-anchor="middle" x="302.5" y="-119.5" font-family="Helvetica,sans-Serif" font-size="10.00">/farmermarket.cpp</text>
</a>
</g>
</g>
<!-- Node2 -->
<g id="node2" class="node">
<title>Node2</title>
<g id="a_node2"><a xlink:href="$farmermarket_8h.html" xlink:title="Provides functions definations.">
<polygon fill="white" stroke="black" points="0,-56.5 0,-75.5 139,-75.5 139,-56.5 0,-56.5"/>
<text text-anchor="middle" x="69.5" y="-63.5" font-family="Helvetica,sans-Serif" font-size="10.00">../header/farmermarket.h</text>
</a>
</g>
</g>
<!-- Node1&#45;&gt;Node2 -->
<g id="edge1" class="edge">
<title>Node1&#45;&gt;Node2</title>
<path fill="none" stroke="midnightblue" d="M247.58,-112.47C206.33,-101.94 150.62,-87.72 112.57,-78"/>
<polygon fill="midnightblue" stroke="midnightblue" points="113.37,-74.59 102.81,-75.51 111.63,-81.37 113.37,-74.59"/>
</g>
<!-- Node3 -->
<g id="node3" class="node">
<title>Node3</title>
<g id="a_node3"><a xlink:title=" ">
<polygon fill="white" stroke="#bfbfbf" points="93.5,-0.5 93.5,-19.5 143.5,-19.5 143.5,-0.5 93.5,-0.5"/>
<text text-anchor="middle" x="118.5" y="-7.5" font-family="Helvetica,sans-Serif" font-size="10.00">stdio.h</text>
</a>
</g>
</g>
<!-- Node1&#45;&gt;Node3 -->
<g id="edge3" class="edge">
<title>Node1&#45;&gt;Node3</title>
<path fill="none" stroke="midnightblue" d="M260.7,-112.41C237.78,-103.7 209.46,-91.26 186.5,-76 165.58,-62.09 145.25,-41.43 132.36,-27.15"/>
<polygon fill="midnightblue" stroke="midnightblue" points="134.91,-24.77 125.67,-19.58 129.67,-29.4 134.91,-24.77"/>
</g>
<!-- Node4 -->
<g id="node4" class="node">
<title>Node4</title>
<g id="a_node4"><a xlink:title=" ">
<polygon fill="white" stroke="#bfbfbf" points="195.5,-56.5 195.5,-75.5 257.5,-75.5 257.5,-56.5 195.5,-56.5"/>
<text text-anchor="middle" x="226.5" y="-63.5" font-family="Helvetica,sans-Serif" font-size="10.00">stdbool.h</text>
</a>
</g>
</g>
<!-- Node1&#45;&gt;Node4 -->
<g id="edge4" class="edge">
<title>Node1&#45;&gt;Node4</title>
<path fill="none" stroke="midnightblue" d="M284.49,-112.4C272.76,-103.22 257.48,-91.26 245.56,-81.92"/>
<polygon fill="midnightblue" stroke="midnightblue" points="247.59,-79.07 237.56,-75.66 243.28,-84.58 247.59,-79.07"/>
</g>
<!-- Node5 -->
<g id="node5" class="node">
<title>Node5</title>
<g id="a_node5"><a xlink:title=" ">
<polygon fill="white" stroke="#bfbfbf" points="276,-56.5 276,-75.5 329,-75.5 329,-56.5 276,-56.5"/>
<text text-anchor="middle" x="302.5" y="-63.5" font-family="Helvetica,sans-Serif" font-size="10.00">string.h</text>
</a>
</g>
</g>
<!-- Node1&#45;&gt;Node5 -->
<g id="edge5" class="edge">
<title>Node1&#45;&gt;Node5</title>
<path fill="none" stroke="midnightblue" d="M302.5,-112.4C302.5,-104.47 302.5,-94.46 302.5,-85.86"/>
<polygon fill="midnightblue" stroke="midnightblue" points="306,-85.66 302.5,-75.66 299,-85.66 306,-85.66"/>
</g>
<!-- Node6 -->
<g id="node6" class="node">
<title>Node6</title>
<g id="a_node6"><a xlink:title=" ">
<polygon fill="white" stroke="#bfbfbf" points="347,-56.5 347,-75.5 400,-75.5 400,-56.5 347,-56.5"/>
<text text-anchor="middle" x="373.5" y="-63.5" font-family="Helvetica,sans-Serif" font-size="10.00">stdlib.h</text>
</a>
</g>
</g>
<!-- Node1&#45;&gt;Node6 -->
<g id="edge6" class="edge">
<title>Node1&#45;&gt;Node6</title>
<path fill="none" stroke="midnightblue" d="M319.33,-112.4C330.17,-103.31 344.28,-91.49 355.37,-82.19"/>
<polygon fill="midnightblue" stroke="midnightblue" points="357.75,-84.76 363.17,-75.66 353.26,-79.4 357.75,-84.76"/>
</g>
<!-- Node7 -->
<g id="node7" class="node">
<title>Node7</title>
<g id="a_node7"><a xlink:title=" ">
<polygon fill="white" stroke="#bfbfbf" points="418.5,-56.5 418.5,-75.5 466.5,-75.5 466.5,-56.5 418.5,-56.5"/>
<text text-anchor="middle" x="442.5" y="-63.5" font-family="Helvetica,sans-Serif" font-size="10.00">time.h</text>
</a>
</g>
</g>
<!-- Node1&#45;&gt;Node7 -->
<g id="edge7" class="edge">
<title>Node1&#45;&gt;Node7</title>
<path fill="none" stroke="midnightblue" d="M335.68,-112.4C359.06,-102.46 390.11,-89.26 412.71,-79.66"/>
<polygon fill="midnightblue" stroke="midnightblue" points="414.29,-82.79 422.13,-75.66 411.56,-76.35 414.29,-82.79"/>
</g>
<!-- Node8 -->
<g id="node8" class="node">
<title>Node8</title>
<g id="a_node8"><a xlink:title=" ">
<polygon fill="white" stroke="#bfbfbf" points="484.5,-56.5 484.5,-75.5 534.5,-75.5 534.5,-56.5 484.5,-56.5"/>
<text text-anchor="middle" x="509.5" y="-63.5" font-family="Helvetica,sans-Serif" font-size="10.00">climits</text>
</a>
</g>
</g>
<!-- Node1&#45;&gt;Node8 -->
<g id="edge8" class="edge">
<title>Node1&#45;&gt;Node8</title>
<path fill="none" stroke="midnightblue" d="M351.29,-112.47C389.1,-101.61 440.57,-86.81 474.39,-77.09"/>
<polygon fill="midnightblue" stroke="midnightblue" points="475.65,-80.37 484.29,-74.25 473.71,-73.65 475.65,-80.37"/>
</g>
<!-- Node2&#45;&gt;Node3 -->
<g id="edge2" class="edge">
<title>Node2&#45;&gt;Node3</title>
<path fill="none" stroke="midnightblue" d="M77.59,-56.08C84.66,-48.3 95.09,-36.8 103.65,-27.37"/>
<polygon fill="midnightblue" stroke="midnightblue" points="106.43,-29.51 110.56,-19.75 101.25,-24.8 106.43,-29.51"/>
</g>
</g>
</svg>
