<?xml version="1.0" encoding="UTF-8" standalone="no"?>
<!DOCTYPE svg PUBLIC "-//W3C//DTD SVG 1.1//EN"
 "http://www.w3.org/Graphics/SVG/1.1/DTD/svg11.dtd">
<!-- Generated by graphviz version 2.43.0 (0)
 -->
<!-- Title: MinHeap Pages: 1 -->
<svg width="97pt" height="193pt"
 viewBox="0.00 0.00 97.00 193.00" xmlns="http://www.w3.org/2000/svg" xmlns:xlink="http://www.w3.org/1999/xlink">
<g id="graph0" class="graph" transform="scale(1 1) rotate(0) translate(4 189)">
<title>MinHeap</title>
<polygon fill="white" stroke="transparent" points="-4,4 -4,-189 93,-189 93,4 -4,4"/>
<!-- Node1 -->
<g id="node1" class="node">
<title>Node1</title>
<g id="a_node1"><a xlink:title=" ">
<polygon fill="#bfbfbf" stroke="black" points="14.5,-0.5 14.5,-57.5 74.5,-57.5 74.5,-0.5 14.5,-0.5"/>
<text text-anchor="middle" x="44.5" y="-45.5" font-family="Helvetica,sans-Serif" font-size="10.00">MinHeap</text>
<polyline fill="none" stroke="black" points="14.5,-38.5 74.5,-38.5 "/>
<text text-anchor="start" x="22.5" y="-26.5" font-family="Helvetica,sans-Serif" font-size="10.00">+ size</text>
<polyline fill="none" stroke="black" points="14.5,-19.5 74.5,-19.5 "/>
<text text-anchor="middle" x="44.5" y="-7.5" font-family="Helvetica,sans-Serif" font-size="10.00"> </text>
</a>
</g>
</g>
<!-- Node2 -->
<g id="node2" class="node">
<title>Node2</title>
<g id="a_node2"><a xlink:href="$structProductSeason.html" xlink:title=" ">
<polygon fill="white" stroke="black" points="0,-105.5 0,-184.5 89,-184.5 89,-105.5 0,-105.5"/>
<text text-anchor="middle" x="44.5" y="-172.5" font-family="Helvetica,sans-Serif" font-size="10.00">ProductSeason</text>
<polyline fill="none" stroke="black" points="0,-165.5 89,-165.5 "/>
<text text-anchor="start" x="8" y="-153.5" font-family="Helvetica,sans-Serif" font-size="10.00">+ price</text>
<text text-anchor="start" x="8" y="-142.5" font-family="Helvetica,sans-Serif" font-size="10.00">+ name</text>
<text text-anchor="start" x="8" y="-131.5" font-family="Helvetica,sans-Serif" font-size="10.00">+ season</text>
<polyline fill="none" stroke="black" points="0,-124.5 89,-124.5 "/>
<text text-anchor="middle" x="44.5" y="-112.5" font-family="Helvetica,sans-Serif" font-size="10.00"> </text>
</a>
</g>
</g>
<!-- Node2&#45;&gt;Node1 -->
<g id="edge1" class="edge">
<title>Node2&#45;&gt;Node1</title>
<path fill="none" stroke="#404040" d="M44.5,-105.4C44.5,-93.93 44.5,-81.33 44.5,-69.78"/>
<polygon fill="none" stroke="#404040" points="44.5,-69.75 40.5,-63.75 44.5,-57.75 48.5,-63.75 44.5,-69.75"/>
<text text-anchor="middle" x="64.5" y="-79" font-family="Helvetica,sans-Serif" font-size="10.00"> +items</text>
</g>
</g>
</svg>
