<?xml version="1.0" encoding="UTF-8" standalone="no"?>
<!DOCTYPE svg PUBLIC "-//W3C//DTD SVG 1.1//EN"
 "http://www.w3.org/Graphics/SVG/1.1/DTD/svg11.dtd">
<!-- Generated by graphviz version 9.0.0 (20230911.1827)
 -->
<!-- Title: src/farmermarketapp/src/farmermarketapp.cpp Pages: 1 -->
<svg width="173pt" height="164pt"
 viewBox="0.00 0.00 172.75 164.00" xmlns="http://www.w3.org/2000/svg" xmlns:xlink="http://www.w3.org/1999/xlink">
<g id="graph0" class="graph" transform="scale(1 1) rotate(0) translate(4 160)">
<title>src/farmermarketapp/src/farmermarketapp.cpp</title>
<!-- Node1 -->
<g id="Node000001" class="node">
<title>Node1</title>
<g id="a_Node000001"><a xlink:title="A simple program to demonstrate the usage of the farmermarket model class.">
<polygon fill="#999999" stroke="#666666" points="127,-156 0,-156 0,-124 127,-124 127,-156"/>
<text text-anchor="start" x="8" y="-142.5" font-family="Helvetica,sans-Serif" font-size="10.00">src/farmermarketapp</text>
<text text-anchor="middle" x="63.5" y="-130.5" font-family="Helvetica,sans-Serif" font-size="10.00">/src/farmermarketapp.cpp</text>
</a>
</g>
</g>
<!-- Node2 -->
<g id="Node000002" class="node">
<title>Node2</title>
<g id="a_Node000002"><a xlink:title=" ">
<polygon fill="#e0e0e0" stroke="#999999" points="90.25,-20 36.75,-20 36.75,0 90.25,0 90.25,-20"/>
<text text-anchor="middle" x="63.5" y="-6.5" font-family="Helvetica,sans-Serif" font-size="10.00">iostream</text>
</a>
</g>
</g>
<!-- Node1&#45;&gt;Node2 -->
<g id="edge7_Node000001_Node000002" class="edge">
<title>Node1&#45;&gt;Node2</title>
<g id="a_edge7_Node000001_Node000002"><a xlink:title=" ">
<path fill="none" stroke="#63b8ff" d="M54.05,-123.57C48.61,-113.77 42.32,-100.61 39.5,-88 36.4,-74.12 36.05,-69.8 39.5,-56 41.75,-47.01 46.17,-37.85 50.61,-30.16"/>
<polygon fill="#63b8ff" stroke="#63b8ff" points="53.55,-32.06 55.88,-21.72 47.61,-28.35 53.55,-32.06"/>
</a>
</g>
</g>
<!-- Node3 -->
<g id="Node000003" class="node">
<title>Node3</title>
<g id="a_Node000003"><a xlink:href="$farmermarket_8h.html" xlink:title="Provides functions.">
<polygon fill="white" stroke="#666666" points="164.75,-88 48.25,-88 48.25,-56 164.75,-56 164.75,-88"/>
<text text-anchor="start" x="56.25" y="-74.5" font-family="Helvetica,sans-Serif" font-size="10.00">../../farmermarket</text>
<text text-anchor="middle" x="106.5" y="-62.5" font-family="Helvetica,sans-Serif" font-size="10.00">/header/farmermarket.h</text>
</a>
</g>
</g>
<!-- Node1&#45;&gt;Node3 -->
<g id="edge8_Node000001_Node000003" class="edge">
<title>Node1&#45;&gt;Node3</title>
<g id="a_edge8_Node000001_Node000003"><a xlink:title=" ">
<path fill="none" stroke="#63b8ff" d="M73.47,-123.69C78.52,-115.95 84.77,-106.35 90.47,-97.6"/>
<polygon fill="#63b8ff" stroke="#63b8ff" points="93.23,-99.78 95.75,-89.49 87.36,-95.96 93.23,-99.78"/>
</a>
</g>
</g>
<!-- Node3&#45;&gt;Node2 -->
<g id="edge9_Node000003_Node000002" class="edge">
<title>Node3&#45;&gt;Node2</title>
<g id="a_edge9_Node000003_Node000002"><a xlink:title=" ">
<path fill="none" stroke="#63b8ff" d="M95.43,-55.55C89.77,-47.65 82.83,-37.97 76.87,-29.66"/>
<polygon fill="#63b8ff" stroke="#63b8ff" points="79.79,-27.73 71.12,-21.64 74.1,-31.81 79.79,-27.73"/>
</a>
</g>
</g>
</g>
</svg>
