<?xml version="1.0" encoding="UTF-8" standalone="no"?>
<!DOCTYPE svg PUBLIC "-//W3C//DTD SVG 1.1//EN"
 "http://www.w3.org/Graphics/SVG/1.1/DTD/svg11.dtd">
<!-- Generated by graphviz version 9.0.0 (20230911.1827)
 -->
<!-- Title: src/farmermarket/src/farmermarket.cpp Pages: 1 -->
<svg width="308pt" height="152pt"
 viewBox="0.00 0.00 308.38 152.00" xmlns="http://www.w3.org/2000/svg" xmlns:xlink="http://www.w3.org/1999/xlink">
<g id="graph0" class="graph" transform="scale(1 1) rotate(0) translate(4 148)">
<title>src/farmermarket/src/farmermarket.cpp</title>
<!-- Node1 -->
<g id="Node000001" class="node">
<title>Node1</title>
<g id="a_Node000001"><a xlink:title=" ">
<polygon fill="#999999" stroke="#666666" points="231.25,-144 125.25,-144 125.25,-112 231.25,-112 231.25,-144"/>
<text text-anchor="start" x="133.25" y="-130.5" font-family="Helvetica,sans-Serif" font-size="10.00">src/farmermarket/src</text>
<text text-anchor="middle" x="178.25" y="-118.5" font-family="Helvetica,sans-Serif" font-size="10.00">/farmermarket.cpp</text>
</a>
</g>
</g>
<!-- Node2 -->
<g id="Node000002" class="node">
<title>Node2</title>
<g id="a_Node000002"><a xlink:href="$farmermarket_8h.html" xlink:title="Provides functions.">
<polygon fill="white" stroke="#666666" points="122.5,-76 0,-76 0,-56 122.5,-56 122.5,-76"/>
<text text-anchor="middle" x="61.25" y="-62.5" font-family="Helvetica,sans-Serif" font-size="10.00">../header/farmermarket.h</text>
</a>
</g>
</g>
<!-- Node1&#45;&gt;Node2 -->
<g id="edge11_Node000001_Node000002" class="edge">
<title>Node1&#45;&gt;Node2</title>
<g id="a_edge11_Node000001_Node000002"><a xlink:title=" ">
<path fill="none" stroke="#63b8ff" d="M148.12,-111.55C130.01,-102.26 107.11,-90.52 89.37,-81.42"/>
<polygon fill="#63b8ff" stroke="#63b8ff" points="91.44,-78.55 80.94,-77.1 88.24,-84.78 91.44,-78.55"/>
</a>
</g>
</g>
<!-- Node3 -->
<g id="Node000003" class="node">
<title>Node3</title>
<g id="a_Node000003"><a xlink:title=" ">
<polygon fill="#e0e0e0" stroke="#999999" points="127.88,-20 82.62,-20 82.62,0 127.88,0 127.88,-20"/>
<text text-anchor="middle" x="105.25" y="-6.5" font-family="Helvetica,sans-Serif" font-size="10.00">stdio.h</text>
</a>
</g>
</g>
<!-- Node1&#45;&gt;Node3 -->
<g id="edge13_Node000001_Node000003" class="edge">
<title>Node1&#45;&gt;Node3</title>
<g id="a_edge13_Node000001_Node000003"><a xlink:title=" ">
<path fill="none" stroke="#63b8ff" d="M168.71,-111.84C155.49,-90.84 131.64,-52.93 117.24,-30.05"/>
<polygon fill="#63b8ff" stroke="#63b8ff" points="120.28,-28.32 112,-21.72 114.36,-32.05 120.28,-28.32"/>
</a>
</g>
</g>
<!-- Node4 -->
<g id="Node000004" class="node">
<title>Node4</title>
<g id="a_Node000004"><a xlink:title=" ">
<polygon fill="#e0e0e0" stroke="#999999" points="234.12,-76 178.38,-76 178.38,-56 234.12,-56 234.12,-76"/>
<text text-anchor="middle" x="206.25" y="-62.5" font-family="Helvetica,sans-Serif" font-size="10.00">stdbool.h</text>
</a>
</g>
</g>
<!-- Node1&#45;&gt;Node4 -->
<g id="edge14_Node000001_Node000004" class="edge">
<title>Node1&#45;&gt;Node4</title>
<g id="a_edge14_Node000001_Node000004"><a xlink:title=" ">
<path fill="none" stroke="#63b8ff" d="M185.46,-111.55C188.98,-104 193.27,-94.82 197.03,-86.77"/>
<polygon fill="#63b8ff" stroke="#63b8ff" points="200.16,-88.32 201.22,-77.78 193.82,-85.36 200.16,-88.32"/>
</a>
</g>
</g>
<!-- Node5 -->
<g id="Node000005" class="node">
<title>Node5</title>
<g id="a_Node000005"><a xlink:title=" ">
<polygon fill="#e0e0e0" stroke="#999999" points="300.38,-76 252.12,-76 252.12,-56 300.38,-56 300.38,-76"/>
<text text-anchor="middle" x="276.25" y="-62.5" font-family="Helvetica,sans-Serif" font-size="10.00">string.h</text>
</a>
</g>
</g>
<!-- Node1&#45;&gt;Node5 -->
<g id="edge15_Node000001_Node000005" class="edge">
<title>Node1&#45;&gt;Node5</title>
<g id="a_edge15_Node000001_Node000005"><a xlink:title=" ">
<path fill="none" stroke="#63b8ff" d="M203.49,-111.55C218.23,-102.52 236.77,-91.17 251.44,-82.19"/>
<polygon fill="#63b8ff" stroke="#63b8ff" points="252.89,-85.4 259.59,-77.2 249.24,-79.43 252.89,-85.4"/>
</a>
</g>
</g>
<!-- Node2&#45;&gt;Node3 -->
<g id="edge12_Node000002_Node000003" class="edge">
<title>Node2&#45;&gt;Node3</title>
<g id="a_edge12_Node000002_Node000003"><a xlink:title=" ">
<path fill="none" stroke="#63b8ff" d="M68.91,-55.59C74.84,-48.32 83.24,-38.02 90.46,-29.15"/>
<polygon fill="#63b8ff" stroke="#63b8ff" points="93.11,-31.43 96.72,-21.47 87.69,-27.01 93.11,-31.43"/>
</a>
</g>
</g>
</g>
</svg>
